<mxfile host="app.diagrams.net" modified="2022-06-07T18:17:39.697Z" agent="5.0 (Windows NT 10.0; Win64; x64) AppleWebKit/537.36 (KHTML, like Gecko) Chrome/102.0.5005.63 Safari/537.36 Edg/102.0.1245.33" etag="KVjhskL-LX6LrmTI39Uu" version="19.0.1" type="github">
  <diagram name="Page-1" id="e7e014a7-5840-1c2e-5031-d8a46d1fe8dd">
    <mxGraphModel dx="3226" dy="798" grid="1" gridSize="10" guides="1" tooltips="1" connect="1" arrows="1" fold="1" page="1" pageScale="1" pageWidth="1169" pageHeight="826" background="none" math="0" shadow="0">
      <root>
        <mxCell id="0" />
        <mxCell id="1" parent="0" />
        <mxCell id="ndIeQPS9fR7mqByQMIB2-12" style="edgeStyle=orthogonalEdgeStyle;rounded=0;orthogonalLoop=1;jettySize=auto;html=1;entryX=0.5;entryY=0;entryDx=0;entryDy=0;" edge="1" parent="1" source="MWQz74-mzpOBfi5y9opP-53" target="MWQz74-mzpOBfi5y9opP-56">
          <mxGeometry relative="1" as="geometry" />
        </mxCell>
        <mxCell id="MWQz74-mzpOBfi5y9opP-53" value="SÃ©lection du questionnaire" style="whiteSpace=wrap;html=1;fillColor=none;strokeColor=rgb(0, 0, 0);fontColor=rgb(0, 0, 0);" parent="1" vertex="1">
          <mxGeometry x="55" y="580" width="120" height="60" as="geometry" />
        </mxCell>
        <mxCell id="5" value="" style="ellipse;shape=startState;fillColor=#000000;strokeColor=#ff0000;" parent="1" vertex="1">
          <mxGeometry x="100" y="200" width="30" height="30" as="geometry" />
        </mxCell>
        <mxCell id="MWQz74-mzpOBfi5y9opP-52" style="edgeStyle=orthogonalEdgeStyle;rounded=0;orthogonalLoop=1;jettySize=auto;html=1;exitX=0.5;exitY=0.916;exitDx=0;exitDy=0;entryX=0.5;entryY=0;entryDx=0;entryDy=0;fontColor=default;exitPerimeter=0;" parent="1" source="5" target="7" edge="1">
          <mxGeometry relative="1" as="geometry" />
        </mxCell>
        <mxCell id="7" value="Login" style="fillColor=none;" parent="1" vertex="1">
          <mxGeometry x="60" y="258" width="110" height="50" as="geometry" />
        </mxCell>
        <mxCell id="MWQz74-mzpOBfi5y9opP-49" style="edgeStyle=orthogonalEdgeStyle;rounded=0;orthogonalLoop=1;jettySize=auto;html=1;entryX=0.5;entryY=0;entryDx=0;entryDy=0;fontColor=default;" parent="1" source="7" target="MWQz74-mzpOBfi5y9opP-47" edge="1">
          <mxGeometry relative="1" as="geometry" />
        </mxCell>
        <mxCell id="MWQz74-mzpOBfi5y9opP-48" style="edgeStyle=orthogonalEdgeStyle;rounded=0;orthogonalLoop=1;jettySize=auto;html=1;fontColor=default;exitX=1;exitY=0.5;exitDx=0;exitDy=0;entryX=1.01;entryY=0.5;entryDx=0;entryDy=0;entryPerimeter=0;" parent="1" source="MWQz74-mzpOBfi5y9opP-47" target="7" edge="1">
          <mxGeometry relative="1" as="geometry">
            <mxPoint x="390" y="240" as="targetPoint" />
            <Array as="points">
              <mxPoint x="200" y="390" />
              <mxPoint x="200" y="283" />
            </Array>
          </mxGeometry>
        </mxCell>
        <mxCell id="ndIeQPS9fR7mqByQMIB2-10" style="edgeStyle=orthogonalEdgeStyle;rounded=0;orthogonalLoop=1;jettySize=auto;html=1;exitX=0.5;exitY=1;exitDx=0;exitDy=0;entryX=0.5;entryY=0;entryDx=0;entryDy=0;" edge="1" parent="1" source="MWQz74-mzpOBfi5y9opP-47" target="ndIeQPS9fR7mqByQMIB2-9">
          <mxGeometry relative="1" as="geometry" />
        </mxCell>
        <mxCell id="MWQz74-mzpOBfi5y9opP-47" value="Login valid" style="rhombus;whiteSpace=wrap;html=1;fontColor=default;fillColor=none;" parent="1" vertex="1">
          <mxGeometry x="75" y="350" width="80" height="80" as="geometry" />
        </mxCell>
        <mxCell id="MWQz74-mzpOBfi5y9opP-90" value="&lt;font style=&quot;font-size: 10px;&quot;&gt;Non&lt;/font&gt;" style="text;html=1;strokeColor=none;fillColor=none;align=center;verticalAlign=middle;whiteSpace=wrap;rounded=0;fontColor=default;" parent="1" vertex="1">
          <mxGeometry x="120" y="340" width="60" height="30" as="geometry" />
        </mxCell>
        <mxCell id="ndIeQPS9fR7mqByQMIB2-14" style="edgeStyle=orthogonalEdgeStyle;rounded=0;orthogonalLoop=1;jettySize=auto;html=1;" edge="1" parent="1" source="MWQz74-mzpOBfi5y9opP-56">
          <mxGeometry relative="1" as="geometry">
            <mxPoint x="115" y="808" as="targetPoint" />
          </mxGeometry>
        </mxCell>
        <mxCell id="MWQz74-mzpOBfi5y9opP-56" value="Remplir questionnaire" style="whiteSpace=wrap;html=1;fillColor=none;strokeColor=rgb(0, 0, 0);fontColor=rgb(0, 0, 0);" parent="1" vertex="1">
          <mxGeometry x="55" y="680" width="120" height="58" as="geometry" />
        </mxCell>
        <mxCell id="MWQz74-mzpOBfi5y9opP-61" value="" style="endArrow=none;html=1;rounded=0;fontColor=default;strokeWidth=7;" parent="1" edge="1">
          <mxGeometry width="50" height="50" relative="1" as="geometry">
            <mxPoint x="-14.5" y="810" as="sourcePoint" />
            <mxPoint x="130" y="810" as="targetPoint" />
          </mxGeometry>
        </mxCell>
        <mxCell id="MWQz74-mzpOBfi5y9opP-69" style="edgeStyle=orthogonalEdgeStyle;rounded=0;orthogonalLoop=1;jettySize=auto;html=1;fontColor=default;strokeWidth=1;" parent="1" source="MWQz74-mzpOBfi5y9opP-66" edge="1">
          <mxGeometry relative="1" as="geometry">
            <mxPoint x="240" y="1400" as="targetPoint" />
            <Array as="points">
              <mxPoint x="20" y="920" />
              <mxPoint x="20" y="1400" />
              <mxPoint x="220" y="1400" />
            </Array>
          </mxGeometry>
        </mxCell>
        <mxCell id="MWQz74-mzpOBfi5y9opP-66" value="Quitter" style="rhombus;whiteSpace=wrap;html=1;fontColor=default;fillColor=none;" parent="1" vertex="1">
          <mxGeometry x="65" y="880" width="80" height="80" as="geometry" />
        </mxCell>
        <mxCell id="MWQz74-mzpOBfi5y9opP-65" value="" style="endArrow=classic;html=1;rounded=0;fontColor=default;strokeWidth=1;" parent="1" edge="1">
          <mxGeometry width="50" height="50" relative="1" as="geometry">
            <mxPoint x="104.74" y="810" as="sourcePoint" />
            <mxPoint x="104.74" y="880" as="targetPoint" />
          </mxGeometry>
        </mxCell>
        <mxCell id="ndIeQPS9fR7mqByQMIB2-13" style="edgeStyle=orthogonalEdgeStyle;rounded=0;orthogonalLoop=1;jettySize=auto;html=1;entryX=0.5;entryY=0;entryDx=0;entryDy=0;" edge="1" parent="1" source="MWQz74-mzpOBfi5y9opP-72" target="MWQz74-mzpOBfi5y9opP-76">
          <mxGeometry relative="1" as="geometry" />
        </mxCell>
        <mxCell id="MWQz74-mzpOBfi5y9opP-72" value="Sauvegarder" style="rhombus;whiteSpace=wrap;html=1;fontColor=default;fillColor=none;" parent="1" vertex="1">
          <mxGeometry x="100" y="1180" width="88" height="88" as="geometry" />
        </mxCell>
        <mxCell id="MWQz74-mzpOBfi5y9opP-91" value="&lt;font style=&quot;font-size: 10px;&quot;&gt;Non&lt;/font&gt;" style="text;html=1;strokeColor=none;fillColor=none;align=center;verticalAlign=middle;whiteSpace=wrap;rounded=0;fontColor=default;" parent="1" vertex="1">
          <mxGeometry x="100" y="950" width="60" height="30" as="geometry" />
        </mxCell>
        <mxCell id="MWQz74-mzpOBfi5y9opP-92" value="&lt;font style=&quot;font-size: 10px;&quot;&gt;Non&lt;/font&gt;" style="text;html=1;strokeColor=none;fillColor=none;align=center;verticalAlign=middle;whiteSpace=wrap;rounded=0;fontColor=default;" parent="1" vertex="1">
          <mxGeometry x="180" y="1190" width="60" height="30" as="geometry" />
        </mxCell>
        <mxCell id="MWQz74-mzpOBfi5y9opP-93" value="&lt;font style=&quot;font-size: 10px;&quot;&gt;Oui&lt;/font&gt;&lt;span style=&quot;color: rgba(0, 0, 0, 0); font-family: monospace; font-size: 0px; text-align: start;&quot;&gt;%3CmxGraphModel%3E%3Croot%3E%3CmxCell%20id%3D%220%22%2F%3E%3CmxCell%20id%3D%221%22%20parent%3D%220%22%2F%3E%3CmxCell%20id%3D%222%22%20value%3D%22%26lt%3Bfont%20style%3D%26quot%3Bfont-size%3A%2010px%3B%26quot%3B%26gt%3BNon%26lt%3B%2Ffont%26gt%3B%22%20style%3D%22text%3Bhtml%3D1%3BstrokeColor%3Dnone%3BfillColor%3Dnone%3Balign%3Dcenter%3BverticalAlign%3Dmiddle%3BwhiteSpace%3Dwrap%3Brounded%3D0%3BfontColor%3Ddefault%3B%22%20vertex%3D%221%22%20parent%3D%221%22%3E%3CmxGeometry%20x%3D%22320%22%20y%3D%22960%22%20width%3D%2260%22%20height%3D%2230%22%20as%3D%22geometry%22%2F%3E%3C%2FmxCell%3E%3C%2Froot%3E%3C%2FmxGraphModel%3E&lt;/span&gt;" style="text;html=1;strokeColor=none;fillColor=none;align=center;verticalAlign=middle;whiteSpace=wrap;rounded=0;fontColor=default;" parent="1" vertex="1">
          <mxGeometry x="85" y="1268" width="60" height="30" as="geometry" />
        </mxCell>
        <mxCell id="MWQz74-mzpOBfi5y9opP-94" value="&lt;font style=&quot;font-size: 10px;&quot;&gt;Oui&lt;/font&gt;&lt;span style=&quot;color: rgba(0, 0, 0, 0); font-family: monospace; font-size: 0px; text-align: start;&quot;&gt;%3CmxGraphModel%3E%3Croot%3E%3CmxCell%20id%3D%220%22%2F%3E%3CmxCell%20id%3D%221%22%20parent%3D%220%22%2F%3E%3CmxCell%20id%3D%222%22%20value%3D%22%26lt%3Bfont%20style%3D%26quot%3Bfont-size%3A%2010px%3B%26quot%3B%26gt%3BNon%26lt%3B%2Ffont%26gt%3B%22%20style%3D%22text%3Bhtml%3D1%3BstrokeColor%3Dnone%3BfillColor%3Dnone%3Balign%3Dcenter%3BverticalAlign%3Dmiddle%3BwhiteSpace%3Dwrap%3Brounded%3D0%3BfontColor%3Ddefault%3B%22%20vertex%3D%221%22%20parent%3D%221%22%3E%3CmxGeometry%20x%3D%22320%22%20y%3D%22960%22%20width%3D%2260%22%20height%3D%2230%22%20as%3D%22geometry%22%2F%3E%3C%2FmxCell%3E%3C%2Froot%3E%3C%2FmxGraphModel%3E&lt;/span&gt;" style="text;html=1;strokeColor=none;fillColor=none;align=center;verticalAlign=middle;whiteSpace=wrap;rounded=0;fontColor=default;" parent="1" vertex="1">
          <mxGeometry x="24.5" y="890" width="60" height="30" as="geometry" />
        </mxCell>
        <mxCell id="MWQz74-mzpOBfi5y9opP-64" value="" style="endArrow=classic;html=1;rounded=0;fontColor=default;strokeWidth=1;entryX=0;entryY=0.5;entryDx=0;entryDy=0;" parent="1" target="MWQz74-mzpOBfi5y9opP-72" edge="1">
          <mxGeometry width="50" height="50" relative="1" as="geometry">
            <mxPoint x="-10" y="810" as="sourcePoint" />
            <mxPoint x="-30" y="1150" as="targetPoint" />
            <Array as="points">
              <mxPoint x="-10" y="1224" />
            </Array>
          </mxGeometry>
        </mxCell>
        <mxCell id="MWQz74-mzpOBfi5y9opP-84" value="" style="endArrow=none;html=1;rounded=0;fontColor=default;strokeWidth=5;" parent="1" edge="1">
          <mxGeometry width="50" height="50" relative="1" as="geometry">
            <mxPoint x="225" y="827" as="sourcePoint" />
            <mxPoint x="295" y="827" as="targetPoint" />
          </mxGeometry>
        </mxCell>
        <mxCell id="MWQz74-mzpOBfi5y9opP-86" style="edgeStyle=orthogonalEdgeStyle;rounded=0;orthogonalLoop=1;jettySize=auto;html=1;fontColor=default;endArrow=classic;endFill=1;strokeWidth=1;" parent="1" source="MWQz74-mzpOBfi5y9opP-72" edge="1">
          <mxGeometry relative="1" as="geometry">
            <mxPoint x="280" y="830" as="targetPoint" />
            <Array as="points">
              <mxPoint x="280" y="1224" />
              <mxPoint x="280" y="830" />
            </Array>
          </mxGeometry>
        </mxCell>
        <mxCell id="MWQz74-mzpOBfi5y9opP-88" style="edgeStyle=orthogonalEdgeStyle;rounded=0;orthogonalLoop=1;jettySize=auto;html=1;fontColor=default;endArrow=classic;endFill=1;strokeWidth=1;" parent="1" source="MWQz74-mzpOBfi5y9opP-66" edge="1">
          <mxGeometry relative="1" as="geometry">
            <mxPoint x="240" y="830" as="targetPoint" />
            <Array as="points">
              <mxPoint x="105" y="1060" />
              <mxPoint x="240" y="1060" />
            </Array>
          </mxGeometry>
        </mxCell>
        <mxCell id="MWQz74-mzpOBfi5y9opP-89" value="" style="endArrow=classic;html=1;rounded=0;fontColor=default;strokeWidth=1;entryX=1.009;entryY=0.768;entryDx=0;entryDy=0;entryPerimeter=0;" parent="1" target="MWQz74-mzpOBfi5y9opP-56" edge="1">
          <mxGeometry width="50" height="50" relative="1" as="geometry">
            <mxPoint x="260" y="827" as="sourcePoint" />
            <mxPoint x="80" y="855" as="targetPoint" />
            <Array as="points">
              <mxPoint x="260" y="725" />
            </Array>
          </mxGeometry>
        </mxCell>
        <mxCell id="ndIeQPS9fR7mqByQMIB2-16" style="edgeStyle=orthogonalEdgeStyle;rounded=0;orthogonalLoop=1;jettySize=auto;html=1;strokeWidth=1;" edge="1" parent="1" source="MWQz74-mzpOBfi5y9opP-76">
          <mxGeometry relative="1" as="geometry">
            <mxPoint x="240" y="1350" as="targetPoint" />
          </mxGeometry>
        </mxCell>
        <mxCell id="MWQz74-mzpOBfi5y9opP-76" value="Enregistrement dans la BDD" style="rounded=0;whiteSpace=wrap;html=1;fontColor=default;fillColor=none;" parent="1" vertex="1">
          <mxGeometry x="84" y="1320" width="120" height="60" as="geometry" />
        </mxCell>
        <mxCell id="MWQz74-mzpOBfi5y9opP-80" value="DÃ©connexion de l&#39;Ã©lÃ¨ve" style="rounded=0;whiteSpace=wrap;html=1;fontColor=default;fillColor=none;" parent="1" vertex="1">
          <mxGeometry x="300" y="1320" width="120" height="60" as="geometry" />
        </mxCell>
        <mxCell id="MWQz74-mzpOBfi5y9opP-82" value="" style="ellipse;html=1;shape=endState;fillColor=#000000;strokeColor=#ff0000;fontColor=default;" parent="1" vertex="1">
          <mxGeometry x="340" y="1430" width="30" height="30" as="geometry" />
        </mxCell>
        <mxCell id="MWQz74-mzpOBfi5y9opP-81" style="edgeStyle=orthogonalEdgeStyle;rounded=0;orthogonalLoop=1;jettySize=auto;html=1;fontColor=default;endArrow=classic;endFill=1;strokeWidth=1;" parent="1" edge="1">
          <mxGeometry relative="1" as="geometry">
            <mxPoint x="355" y="1430" as="targetPoint" />
            <mxPoint x="355" y="1380" as="sourcePoint" />
          </mxGeometry>
        </mxCell>
        <mxCell id="ndIeQPS9fR7mqByQMIB2-7" value="Oui" style="text;html=1;align=center;verticalAlign=middle;resizable=0;points=[];autosize=1;strokeColor=none;fillColor=none;" vertex="1" parent="1">
          <mxGeometry x="115" y="430" width="30" height="20" as="geometry" />
        </mxCell>
        <mxCell id="ndIeQPS9fR7mqByQMIB2-11" style="edgeStyle=orthogonalEdgeStyle;rounded=0;orthogonalLoop=1;jettySize=auto;html=1;entryX=0.5;entryY=0;entryDx=0;entryDy=0;" edge="1" parent="1" source="ndIeQPS9fR7mqByQMIB2-9" target="MWQz74-mzpOBfi5y9opP-53">
          <mxGeometry relative="1" as="geometry" />
        </mxCell>
        <mxCell id="ndIeQPS9fR7mqByQMIB2-9" value="Affichage des questionnaires disponible" style="rounded=0;whiteSpace=wrap;html=1;fillColor=none;" vertex="1" parent="1">
          <mxGeometry x="55" y="480" width="120" height="60" as="geometry" />
        </mxCell>
        <mxCell id="ndIeQPS9fR7mqByQMIB2-15" value="" style="endArrow=none;html=1;rounded=0;strokeWidth=3;" edge="1" parent="1">
          <mxGeometry width="50" height="50" relative="1" as="geometry">
            <mxPoint x="240" y="1430" as="sourcePoint" />
            <mxPoint x="240" y="1320" as="targetPoint" />
          </mxGeometry>
        </mxCell>
        <mxCell id="ndIeQPS9fR7mqByQMIB2-17" value="" style="endArrow=classic;html=1;rounded=0;strokeWidth=1;entryX=0;entryY=0.5;entryDx=0;entryDy=0;" edge="1" parent="1" target="MWQz74-mzpOBfi5y9opP-80">
          <mxGeometry width="50" height="50" relative="1" as="geometry">
            <mxPoint x="240" y="1350" as="sourcePoint" />
            <mxPoint x="160" y="1290" as="targetPoint" />
          </mxGeometry>
        </mxCell>
      </root>
    </mxGraphModel>
  </diagram>
</mxfile>
